<svg xmlns="http://www.w3.org/2000/svg" version="1.0" width="860.000000pt" height="1071.000000pt" viewBox="0 0 860.000000 1071.000000" preserveAspectRatio="xMidYMid meet">

<g transform="translate(0.000000,1071.000000) scale(0.100000,-0.100000)" fill="#643fb5" stroke="none">
<path d="M401 10678 c-81 -253 -275 -935 -295 -1038 -74 -382 -99 -651 -99 -1050 0 -618 80 -1205 224 -1657 178 -555 552 -1090 1058 -1510 170 -141 660 -481 926 -642 675 -409 1253 -855 1622 -1251 321 -344 421 -482 632 -880 172 -323 175 -328 428 -677 236 -328 267 -367 446 -554 215 -225 803 -792 937 -904 109 -90 239 -181 395 -275 304 -184 490 -238 784 -227 240 9 389 55 830 259 l311 143 0 5148 0 5147 -4094 0 -4094 0 -11 -32z" fill="#643fb5"/>
</g>
</svg>